<svg xmlns="http://www.w3.org/2000/svg" xmlns:xlink="http://www.w3.org/1999/xlink" width="58" height="58" viewBox="0 0 58 58">
  <defs>
    <polygon id="logo-header-a" points=".094 0 21.185 0 21.185 21.192 .094 21.192"/>
    <polygon id="logo-header-c" points=".003 .06 20.985 .06 20.985 21.042 .003 21.042"/>
    <polygon id="logo-header-e" points=".15 .06 21.132 .06 21.132 21.042 .15 21.042"/>
  </defs>
  <g fill="none" fill-rule="evenodd">
    <g transform="translate(36.632 36.632)">
      <mask id="logo-header-b" fill="#fff">
        <use xlink:href="#logo-header-a"/>
      </mask>
      <path fill="#000" d="M0.393056871,21.1917801 L2.84925083,21.1917801 C3.03236463,21.1917801 3.20683711,21.1112512 3.3288444,20.9705375 L10.5801511,12.6029464 C10.6120417,12.5662845 10.6675931,12.5662845 10.6994837,12.6029464 L17.9507905,20.9705375 C18.0730035,21.1112512 18.2472702,21.1917801 18.430384,21.1917801 L20.886578,21.1917801 C21.1087835,21.1917801 21.2264701,20.9213725 21.0785389,20.7505664 L12.346685,10.6747025 C12.3195265,10.6433386 12.3195265,10.5958689 12.346685,10.5647169 L21.119688,0.44138328 C21.2676193,0.270789108 21.1499327,-4.23836451e-05 20.9277272,-4.23836451e-05 L18.4717389,-4.23836451e-05 C18.2884194,-4.23836451e-05 18.1139469,0.080486542 17.9919396,0.221412162 L10.6994837,8.63626105 C10.6675931,8.67313482 10.6120417,8.67313482 10.5801511,8.63626105 L3.28769523,0.221412162 C3.16568794,0.080486542 2.99121546,-4.23836451e-05 2.80789591,-4.23836451e-05 L0.351907702,-4.23836451e-05 C0.129702184,-4.23836451e-05 0.0120155576,0.270789108 0.16015257,0.44138328 L8.93294986,10.5647169 C8.96010831,10.5958689 8.96010831,10.6433386 8.93294986,10.6747025 L0.201095994,20.7505664 C0.0533704734,20.9213725 0.170851354,21.1917801 0.393056871,21.1917801" mask="url(#logo-header-b)"/>
    </g>
    <mask id="logo-header-d" fill="#fff">
      <use xlink:href="#logo-header-c"/>
    </mask>
    <path fill="#000" d="M20.6574949,18.4195545 L2.68766863,18.4195545 C2.65367779,18.4195545 2.62619136,18.392068 2.62619136,18.3580772 L2.62619136,18.322198 C2.62619136,18.2905152 2.64087876,18.2607207 2.66563753,18.2412074 L20.4753711,4.39623309 C20.794927,4.14780618 20.9818766,3.76572392 20.9818766,3.36077127 L20.9818766,1.37125779 C20.9818766,0.646959065 20.39501,0.0598826352 19.6707113,0.0598826352 L0.331179928,0.0598826352 C0.150315066,0.0598826352 0.00344104841,0.206756653 0.00344104841,0.387831334 L0.00344104841,2.35426461 C0.00344104841,2.53533929 0.150315066,2.68221331 0.331389748,2.68221331 L18.301216,2.68221331 C18.3352068,2.68221331 18.3624834,2.70948991 18.3624834,2.74348076 L18.3624834,2.77935998 C18.3624834,2.8110428 18.3480058,2.84083725 18.3232471,2.86035051 L0.509946589,16.7080525 C0.190180871,16.9566893 0.00302140836,17.3391912 0.00323122839,17.7441438 L0.00449014854,19.732818 C0.00574906869,20.4562775 0.592615679,21.0418851 1.31607513,21.0418851 L20.6574949,21.0418851 C20.8385695,21.0418851 20.9852337,20.8950111 20.9852337,20.7141463 L20.9852337,18.7472933 C20.9852337,18.5662187 20.8385695,18.4195545 20.6574949,18.4195545" mask="url(#logo-header-d)"/>
    <g transform="translate(36.632)">
      <mask id="logo-header-f" fill="#fff">
        <use xlink:href="#logo-header-e"/>
      </mask>
      <path fill="#000" d="M13.9201948,0.0599036172 L7.36122085,0.0599036172 C3.37841713,0.0599036172 0.149706588,3.28861416 0.149706588,7.27141788 L0.149706588,13.8303919 C0.149706588,17.8131956 3.37841713,21.0419061 7.36122085,21.0419061 L13.9201948,21.0419061 C17.9029985,21.0419061 21.1317091,17.8131956 21.1317091,13.8303919 L21.1317091,7.27141788 C21.1317091,3.28861416 17.9029985,0.0599036172 13.9201948,0.0599036172 M13.9201948,2.68265393 C16.4504145,2.68265393 18.5089588,4.7411982 18.5089588,7.27141788 L18.5089588,13.8303919 C18.5089588,16.3606115 16.4504145,18.4191558 13.9201948,18.4191558 L7.36122085,18.4191558 C4.83100117,18.4191558 2.7724569,16.3606115 2.7724569,13.8303919 L2.7724569,7.27141788 C2.7724569,4.7411982 4.83100117,2.68265393 7.36122085,2.68265393 L13.9201948,2.68265393" mask="url(#logo-header-f)"/>
    </g>
    <path fill="#000" d="M14.0240947,36.6315789 L7.34432632,36.6315789 C3.28817263,36.6315789 0,39.9197516 0,43.9759053 L0,50.6556737 C0,54.7118274 3.28817263,58 7.34432632,58 L14.0240947,58 C18.0802484,58 21.3684211,54.7118274 21.3684211,50.6556737 L21.3684211,43.9759053 C21.3684211,39.9197516 18.0802484,36.6315789 14.0240947,36.6315789 M14.0240947,39.3026316 C16.6009126,39.3026316 18.6973684,41.3990874 18.6973684,43.9759053 L18.6973684,50.6556737 C18.6973684,53.2324916 16.6009126,55.3289474 14.0240947,55.3289474 L7.34432632,55.3289474 C4.76750842,55.3289474 2.67105263,53.2324916 2.67105263,50.6556737 L2.67105263,43.9759053 C2.67105263,41.3990874 4.76750842,39.3026316 7.34432632,39.3026316 L14.0240947,39.3026316"/>
  </g>
</svg>
